<?xml version="1.0" standalone="no"?><!DOCTYPE svg PUBLIC "-//W3C//DTD SVG 1.1//EN" "http://www.w3.org/Graphics/SVG/1.1/DTD/svg11.dtd"><svg t="1590221097617" class="icon" viewBox="0 0 1024 1024" version="1.1" xmlns="http://www.w3.org/2000/svg" p-id="713" xmlns:xlink="http://www.w3.org/1999/xlink" width="200" height="200"><defs><style type="text/css"></style></defs><path d="M918.3 337.6c-22.2-52.5-54-99.7-94.5-140.1-40.5-40.5-87.6-72.3-140.1-94.5-54.4-23-112.1-34.7-171.6-34.7S394.9 80 340.5 102.9c-52.5 22.2-99.7 54-140.2 94.5-40.5 40.5-72.3 87.6-94.5 140.1-23 54.4-34.7 112.1-34.7 171.7 0 87.9 25.8 172.8 74.6 245.5 5.9 8.9 15.9 14.2 26.6 14.2h679.4c10.7 0 20.6-5.3 26.5-14.1 48.9-72.7 74.8-157.6 74.8-245.6 0-59.4-11.7-117.2-34.7-171.6zM834.2 705H189.8c-35.8-58.9-54.7-126.2-54.7-195.7 0-100.7 39.2-195.3 110.4-266.5 71.2-71.2 165.9-110.4 266.6-110.4 100.7 0 195.3 39.2 266.5 110.4C849.8 313.9 889 408.6 889 509.3c0 69.6-18.9 136.9-54.8 195.7z" p-id="714"></path><path d="M512.1 272.4c13.8 0 25-11.2 25-25v-63.1c0-13.8-11.2-25-25-25s-25 11.2-25 25v63.1c0 13.8 11.2 25 25 25zM297.1 263.1c-9.8-9.8-25.6-9.8-35.4 0-9.8 9.8-9.8 25.6 0 35.4l44.7 44.7c4.9 4.9 11.3 7.3 17.7 7.3s12.8-2.4 17.7-7.3c9.8-9.8 9.8-25.6 0-35.4l-44.7-44.7zM246.4 488.6h-63.2c-13.8 0-25 11.2-25 25s11.2 25 25 25h63.2c13.8 0 25-11.2 25-25s-11.2-25-25-25zM753.2 513.1c0 13.8 11.2 25 25 25h63.2c13.8 0 25-11.2 25-25s-11.2-25-25-25h-63.2c-13.8 0-25 11.2-25 25zM762.5 262.8c-9.8-9.8-25.6-9.8-35.4 0l-44.7 44.6c-9.8 9.8-9.8 25.6 0 35.4 4.9 4.9 11.3 7.3 17.7 7.3 6.4 0 12.8-2.4 17.7-7.3l44.7-44.6c9.7-9.8 9.7-25.6 0-35.4zM492.5 468.2c-0.8 0-1.7-0.1-2.5-0.1-18.1 0-34.3 7.7-45.6 20.1-10.1 11-16.2 25.6-16.2 41.7 0 34.1 27.7 61.8 61.8 61.8s61.8-27.7 61.8-61.8c0-1.5-0.1-2.9-0.2-4.4l99.6-147.4-158.7 90.1z" p-id="715"></path></svg>